<?xml version="1.0" encoding="UTF-8"?>
<svg width="26px" height="26px" viewBox="0 0 26 26" version="1.1" xmlns="http://www.w3.org/2000/svg" xmlns:xlink="http://www.w3.org/1999/xlink">
    <!-- Generator: Sketch 47.1 (45422) - http://www.bohemiancoding.com/sketch -->
    <title>magnifier</title>
    <desc>Created with Sketch.</desc>
    <defs></defs>
    <g id="Page-1" stroke="none" stroke-width="1" fill="none" fill-rule="evenodd">
        <g id="Home" transform="translate(-1019.000000, -212.000000)" fill-rule="nonzero" fill="#FFFFFF">
            <g id="Search-Bar" transform="translate(380.000000, 196.000000)">
                <g id="BTN" transform="translate(622.000000, 0.000000)">
                    <g id="magnifier" transform="translate(17.000000, 16.000000)">
                        <path d="M25.2241422,21.4801689 L18.7446301,15 C17.779179,16.5015267 16.5014959,17.7785957 15,18.7441248 L21.480036,25.2242937 C22.5145228,26.2585688 24.1918092,26.2585688 25.224084,25.2242937 C26.258629,24.1917067 26.258629,22.5143858 25.2241422,21.4801689 Z" id="Shape"></path>
                        <path d="M20,10.0001099 C20,4.47769479 15.5225497,0 10.000055,0 C4.47767018,0 0,4.47769479 0,10.0001099 C0,15.522525 4.47767018,20 10.000055,20 C15.5225497,20 20,15.522525 20,10.0001099 Z M10.000055,17.4999038 C5.86428438,17.4999038 2.50008244,14.1359582 2.50008244,10.0001649 C2.50008244,5.86437157 5.86428438,2.50015114 10.000055,2.50015114 C14.1357156,2.50015114 17.5001924,5.86437157 17.5001924,10.0001649 C17.5001924,14.1359582 14.1357156,17.4999038 10.000055,17.4999038 Z" id="Shape"></path>
                        <path d="M4,10 L5.71410805,10 C5.71410805,7.63689125 7.63692551,5.71426149 10,5.71426149 L10,4 C6.69202359,4 4,6.69199823 4,10 Z" id="Shape"></path>
                    </g>
                </g>
            </g>
        </g>
    </g>
</svg>